<svg width="21" height="17" viewBox="0 0 21 17" xmlns="http://www.w3.org/2000/svg"><title>Path 3</title><desc>Created with Sketch.</desc><path d="M18.336 4.535c0 5.368-4.213 11.557-11.916 11.557-2.364 0-4.566-.672-6.42-1.825.326.035.66.058 1 .058 1.96 0 3.767-.65 5.2-1.74-1.834-.032-3.38-1.208-3.913-2.82.256.046.52.072.787.072.383 0 .753-.05 1.103-.143C2.26 9.32.817 7.68.817 5.71v-.05c.565.302 1.21.485 1.897.506C1.59 5.436.854 4.193.854 2.784c0-.744.205-1.44.566-2.04C3.484 3.2 6.57 4.816 10.052 4.985c-.073-.296-.108-.608-.108-.926C9.944 1.82 11.82 0 14.13 0c1.206 0 2.295.493 3.06 1.28.95-.18 1.85-.518 2.658-.984-.314.948-.978 1.744-1.84 2.247.845-.097 1.65-.316 2.403-.64-.56.82-1.268 1.534-2.087 2.107.01.173.013.35.013.525z" fill="#fff"/></svg>