<svg width="151" height="39" viewBox="0 0 151 39" xmlns="http://www.w3.org/2000/svg"><title>Shape 2 + Imported Layers</title><desc>Created with Sketch.</desc><g fill="#fff"><path d="M37.256 25.66c-3.028 1.712-6.587 5.09-8.546 7.59-6.373 8.132-14.077 5.56-16.214 4.328-3.9-2.252-6.583-6.674-7.875-10.524L.07 13.516c-.315-.96.212-2.006 1.172-2.33.504-.168 1.036-.105 1.475.148.222.128.42.305.578.527.08.106.662.986 2.243 3.398.763 1.163 2.472 3.596 3.926 4.436.312.18.61.286.886.29 2.283.052 3.482-3.817 5.18-10.198l2.204-8.247c.122-.506.432-.934.875-1.206.44-.27.96-.356 1.464-.236.184.044.357.112.516.204.275.16.508.387.677.667.267.44.348.96.218 1.485l-2.058 10.56c-.358 1.857-.307 2.6.248 2.92.05.03.103.055.16.076.675.262 1.146-.262 1.783-1.323L28.162 3.73c.537-.93 1.722-1.253 2.643-.722.92.533 1.234 1.722.694 2.658L25.613 16.33c-.585 1.075-1.09 2.255-.4 2.862.055.047.11.087.167.12.9.52 2.096-.808 2.564-1.326l6.69-7.492c.33-.4.797-.647 1.31-.695.402-.04.795.048 1.136.245.097.056.19.12.278.194.394.33.637.798.68 1.315.044.515-.115 1.02-.455 1.43l-7.29 9.305c-.465.594-.56 1.27-.244 1.715.08.114.18.205.298.273.306.177.728.19 1.203.02l6.192-2.69c.4-.18.846-.19 1.253-.032.077.03.152.067.223.107.3.174.536.437.677.763.174.402.182.85.022 1.26-.16.41-.47.733-.872.91-.344.227-.98.586-1.79 1.043z"/><g><path d="M61.837 28.012L67.6 7.904h2.374L76 28.012l5.895-19.756h4.75l-9.06 27.237h-3.432l-5.674-18.35-5.456 18.35H59.55L51.06 8.256h4.75l6.027 19.756"/><path d="M107.65 34.965h-4.69v-1.778c-1.38 1.613-3.438 2.42-6.168 2.42-2.732 0-4.91-1.054-6.54-3.16-1.628-2.106-2.442-4.574-2.442-7.405 0-2.83.83-5.24 2.492-7.233 1.66-1.992 3.79-2.987 6.39-2.987 2.765 0 4.854.823 6.27 2.468v-1.826h4.687v19.5zM1.503 9.19c0-1.81-.51-3.3-1.53-4.468-1.02-1.168-2.328-1.753-3.924-1.753s-2.895.567-3.9 1.703c-1.003 1.135-1.504 2.64-1.504 4.517 0 1.876.51 3.39 1.53 4.542 1.02 1.152 2.336 1.727 3.948 1.727s2.912-.56 3.9-1.68c.986-1.118 1.48-2.648 1.48-4.59zm17.37 2.616l4.788-12.342h5.33L71.01 27.36h-2.862L59.215 7.464h5.28l5.38 12.342z"/><path d="M137.21 25.684c0 1.875.412 3.423 1.235 4.64.822 1.218 1.957 1.827 3.405 1.827 2.27 0 3.717-1.118 4.343-3.356l4.54.74c-1.48 4.048-4.44 6.072-8.883 6.072-2.96 0-5.322-.945-7.082-2.838-1.76-1.892-2.64-4.352-2.64-7.38 0-3.193.846-5.752 2.54-7.677 1.695-1.925 4-2.887 6.91-2.887 2.912 0 5.182.913 6.81 2.74 1.63 1.826 2.444 4.32 2.444 7.48v.64h-13.62zM44.39 7.018c0-1.35-.42-2.534-1.258-3.555-.84-1.02-1.925-1.53-3.257-1.53-1.333 0-2.42.535-3.258 1.604-.838 1.07-1.258 2.23-1.258 3.48h9.03z"/></g></g></svg>