<?xml version="1.0" encoding="UTF-8" standalone="no"?>
<svg width="56px" height="52px" viewBox="0 0 56 52" version="1.1" xmlns="http://www.w3.org/2000/svg" xmlns:xlink="http://www.w3.org/1999/xlink" xmlns:sketch="http://www.bohemiancoding.com/sketch/ns">
    <!-- Generator: Sketch Beta 3.2 (9790) - http://www.bohemiancoding.com/sketch -->
    <title>Shape + Shape</title>
    <desc>Created with Sketch Beta.</desc>
    <defs>
        <linearGradient x1="50%" y1="144.92513%" x2="50%" y2="-21.8030643%" id="linearGradient-1">
            <stop stop-color="#53F0E9" offset="0%"></stop>
            <stop stop-color="#33B3F1" offset="58.355626%"></stop>
            <stop stop-color="#1483B8" offset="100%"></stop>
        </linearGradient>
    </defs>
    <g id="Page-1" stroke="none" stroke-width="1" fill="none" fill-rule="evenodd" sketch:type="MSPage">
        <g id="Group" sketch:type="MSLayerGroup" transform="translate(-125.000000, -21.000000)">
            <g id="Shape-+-Shape" transform="translate(126.000000, 21.000000)" sketch:type="MSShapeGroup">
                <path d="M49.7859731,34.1791738 C45.8606848,36.4732747 40.6440001,40.4042739 38.1289158,43.7466855 C34.0339393,49.1904871 33.0024798,49.4521244 29.7785127,50.8017773 C26.5545456,52.1514303 20.4521922,51.7824935 17.7265907,50.2088663 C12.7531051,47.3374223 9.3820598,41.6059483 7.79018483,36.5968296 L-0.111012101,22.9585462 C-0.49754105,21.7075502 0.198303892,20.3323873 1.43890454,19.8931083 C2.09085241,19.6625601 2.77398472,19.7349535 3.33298964,20.0576951 C3.61693648,20.2216319 3.86836621,20.449873 4.06712286,20.7362741 C4.16992272,20.8718377 4.9012009,22.0115336 6.88996499,25.1357689 C7.84973448,26.6415134 12.2982481,25.8178152 14.1530383,26.8886788 C14.5505639,27.1181903 14.9333056,27.2512822 15.2868825,27.2535608 C18.2217496,27.2782069 19.8334523,22.1989537 22.1357214,13.828635 L25.117924,3.00905747 C25.2852635,2.34629638 25.6910783,1.78139653 26.2655272,1.41822009 C26.8394822,1.05475854 27.5092573,0.934745943 28.1544203,1.08202762 C28.3894995,1.13673244 28.6105954,1.22249986 28.8140495,1.33996413 C29.1646621,1.54239042 29.4605757,1.83613683 29.6730581,2.19912203 C30.0083952,2.77241624 30.1021919,3.4493119 29.9264119,4.13809666 L27.0864459,17.9763635 C26.5921695,20.4119707 26.6441154,21.3825975 27.3522541,21.7914416 C27.4154632,21.8279353 27.4842151,21.8593902 27.5574216,21.8865508 C28.420475,22.2152459 29.0359384,21.5221525 29.8741605,20.1227689 L38.489434,5.68193898 C39.1964242,4.45739594 40.7274479,4.01345722 41.9012595,4.69115764 C43.0770463,5.36999849 43.4577987,6.91838821 42.7457542,8.15168534 L34.9836271,22.1993713 C34.2115115,23.614264 33.5414047,25.16495 34.4180252,25.9457053 C34.4860412,26.0069455 34.5566424,26.058006 34.6287402,26.0996317 C35.7773669,26.7627916 37.338104,25.0060725 37.9497024,24.3196735 L46.6885788,14.4055238 C47.1219214,13.8750552 47.7257777,13.5453354 48.3879688,13.473812 C48.9044369,13.4163386 49.4083064,13.5232402 49.8428685,13.7741347 C49.9673113,13.8459818 50.0853142,13.9278427 50.1971694,14.0226326 C50.6984922,14.4487039 51.0016549,15.054917 51.0488963,15.7303379 C51.0955481,16.4033587 50.8820463,17.0662452 50.4365293,17.6075364 L40.8929742,29.9030428 C40.2836024,30.6882239 40.1478661,31.5710902 40.5475461,32.1492629 C40.65023,32.2964317 40.7768796,32.413495 40.9265072,32.4998826 C41.3176131,32.7256877 41.8588928,32.7347204 42.4733757,32.5051995 L50.4840554,28.8759168 C51.0037597,28.6349309 51.5762209,28.6139047 52.0960686,28.8117361 C52.1952561,28.8497774 52.2907751,28.895313 52.3811443,28.9474877 C52.7638553,29.168446 53.0623687,29.5090087 53.2373001,29.9313321 C53.4542914,30.4541508 53.4563939,31.0389709 53.2426813,31.5767753 C53.0293616,32.1161797 52.6252307,32.5447327 52.1054307,32.7836035 C51.6582877,33.0870804 50.8329864,33.5677066 49.7859731,34.1791738 Z" id="Shape" fill-opacity="0.1" fill="#000000"></path>
                <path d="M51.2526397,33.4144679 C47.3273515,35.7085688 42.6881761,40.1879939 40.1228851,43.491954 C31.7797587,54.2374629 21.9188589,51.0177876 19.1932574,49.4441604 C14.2197718,46.5727165 10.8487265,40.8412424 9.2568515,35.8321237 L3.64977221,18.220312 C3.26324326,16.969316 3.95908821,15.5941531 5.19968886,15.1548741 C5.85163672,14.9243259 6.53476904,14.9967193 7.09377395,15.3194609 C7.37772079,15.4833977 7.62915053,15.7116388 7.82790717,15.9980399 C7.93070703,16.1336035 8.66198522,17.2732994 10.6507493,20.3975347 C11.6105188,21.9032792 13.7649148,25.0531094 15.619705,26.123973 C16.0172305,26.3534845 16.3999723,26.4865763 16.7535491,26.4888549 C19.6884163,26.513501 21.300119,21.4342478 23.602388,13.0639291 L26.5845907,2.24435159 C26.7519302,1.5815905 27.157745,1.01669065 27.7321938,0.653514208 C28.3061488,0.290052661 28.975924,0.17004006 29.6210869,0.317321738 C29.8561662,0.372026557 30.077262,0.457793977 30.2807161,0.575258248 C30.6313288,0.77768454 30.9272424,1.07143095 31.1397248,1.43441614 C31.4750618,2.00771036 31.5688585,2.68460602 31.3930785,3.37339078 L28.5531126,17.2116576 C28.0588362,19.6472648 28.1107821,20.6178916 28.8189208,21.0267357 C28.8821298,21.0632295 28.9508818,21.0946843 29.0240883,21.121845 C29.8871416,21.45054 30.502605,20.7574466 31.3408272,19.358063 L39.9561006,4.91723309 C40.6630909,3.69269006 42.1941146,3.24875134 43.3679261,3.92645176 C44.543713,4.60529261 44.9244653,6.15368232 44.2124209,7.38697945 L36.4502937,21.4346655 C35.6781782,22.8495581 35.0080713,24.4002442 35.8846918,25.1809994 C35.9527079,25.2422396 36.0233091,25.2933001 36.0954069,25.3349258 C37.2440336,25.9980857 38.8047706,24.2413666 39.4163691,23.5549676 L48.1552454,13.6408179 C48.5885881,13.1103493 49.1924443,12.7806295 49.8546355,12.7091062 C50.3711035,12.6516327 50.8749731,12.7585343 51.3095352,13.0094289 C51.433978,13.0812759 51.5519809,13.1631368 51.6638361,13.2579267 C52.1651588,13.683998 52.4683216,14.2902111 52.515563,14.965632 C52.5622148,15.6386528 52.3487129,16.3015393 51.903196,16.8428305 L42.3596409,29.1383369 C41.750269,29.9235181 41.6145327,30.8063844 42.0142128,31.384557 C42.1168966,31.5317258 42.2435462,31.6487891 42.3931739,31.7351767 C42.7842798,31.9609818 43.3255595,31.9700146 43.9400424,31.7404937 L51.950722,28.1112109 C52.4704263,27.8702251 53.0428876,27.8491988 53.5627352,28.0470303 C53.6619227,28.0850715 53.7574418,28.1306072 53.847811,28.1827818 C54.2305219,28.4037401 54.5290354,28.7443028 54.7039668,29.1666262 C54.9209581,29.6894449 54.9230606,30.274265 54.7093479,30.8120694 C54.4960283,31.3514739 54.0918974,31.7800268 53.5720974,32.0188976 C53.1249543,32.3223745 52.299653,32.8030007 51.2526397,33.4144679 Z" id="Shape" fill="url(#linearGradient-1)"></path>
            </g>
        </g>
    </g>
</svg>