<svg width="56" height="52" viewBox="0 0 56 52" xmlns="http://www.w3.org/2000/svg"><title>Shape + Shape</title><desc>Created with Sketch Beta.</desc><defs><linearGradient x1="50%" y1="144.925%" x2="50%" y2="-21.803%" id="a"><stop stop-color="#53F0E9" offset="0%"/><stop stop-color="#33B3F1" offset="58.356%"/><stop stop-color="#1483B8" offset="100%"/></linearGradient></defs><g fill="none"><path d="M50.786 34.18c-3.925 2.293-9.142 6.224-11.657 9.567-4.096 5.443-5.128 5.705-8.35 7.055-3.225 1.35-9.328.98-12.053-.593-4.974-2.873-8.345-8.604-9.937-13.613L.89 22.96c-.388-1.252.308-2.628 1.55-3.067.65-.23 1.334-.158 1.893.165.284.164.535.392.734.678.103.136.834 1.276 2.823 4.4.96 1.506 5.408.682 7.263 1.753.398.228.78.36 1.134.364 2.935.024 4.546-5.055 6.85-13.425l2.98-10.82c.168-.664.574-1.23 1.15-1.592.572-.363 1.242-.483 1.887-.336.235.055.457.14.66.258.35.202.647.496.86.86.334.572.428 1.25.252 1.938l-2.84 13.838c-.494 2.436-.442 3.407.266 3.815.063.038.132.07.205.097.863.328 1.48-.365 2.317-1.764l8.615-14.44c.706-1.226 2.237-1.67 3.41-.992 1.177.68 1.558 2.228.846 3.462L35.984 22.2c-.772 1.414-1.443 2.965-.566 3.746.068.06.14.112.21.154 1.15.663 2.71-1.094 3.322-1.78l8.74-9.914c.432-.53 1.036-.86 1.698-.932.516-.058 1.02.05 1.455.3.124.072.242.154.354.25.5.425.805 1.03.852 1.706.046.673-.168 1.336-.613 1.878l-9.544 12.295c-.61.785-.745 1.668-.345 2.246.102.146.23.263.38.35.39.226.93.235 1.545.005l8.01-3.63c.52-.24 1.093-.26 1.613-.063.1.038.195.083.285.135.384.22.682.562.857.984.217.524.22 1.11.006 1.647-.214.54-.618.968-1.138 1.207-.447.303-1.272.784-2.32 1.395z" id="Shape" fill-opacity=".1" fill="#000"/><path d="M52.253 33.414c-3.926 2.295-8.565 6.774-11.13 10.078-8.343 10.745-18.204 7.526-20.93 5.952-4.973-2.87-8.344-8.603-9.936-13.612L4.65 18.22c-.387-1.25.31-2.626 1.55-3.065.652-.23 1.335-.158 1.894.164.284.163.535.392.734.678.103.136.834 1.275 2.823 4.4.96 1.505 3.115 4.655 4.97 5.726.397.23.78.363 1.134.365 2.934.024 4.546-5.056 6.848-13.426l2.983-10.82c.167-.662.573-1.227 1.147-1.59.574-.364 1.244-.484 1.89-.337.234.055.455.14.66.258.35.203.645.496.858.86.335.573.43 1.25.253 1.938l-2.84 13.84c-.494 2.434-.442 3.405.266 3.814.062.036.13.068.204.095.863.33 1.48-.365 2.317-1.764l8.616-14.44c.707-1.225 2.238-1.67 3.412-.992 1.176.68 1.556 2.228.844 3.46l-7.762 14.05c-.772 1.414-1.442 2.964-.565 3.745.068.062.138.113.21.155 1.15.663 2.71-1.094 3.32-1.78l8.74-9.914c.434-.53 1.037-.86 1.7-.93.516-.058 1.02.05 1.455.3.124.07.242.153.354.248.5.426.804 1.032.852 1.708.046.673-.167 1.336-.613 1.877L43.36 29.138c-.61.786-.745 1.668-.346 2.247.103.147.23.264.38.35.39.226.932.235 1.546.005l8.01-3.63c.52-.24 1.093-.26 1.613-.063.1.038.194.084.285.136.383.22.68.56.856.984.217.522.22 1.107.005 1.645-.214.54-.618.968-1.138 1.207-.447.302-1.272.783-2.32 1.394z" fill="url(#a)"/></g></svg>