<?xml version="1.0" encoding="UTF-8" standalone="no"?>
<svg width="12px" height="22px" viewBox="0 0 12 22" version="1.1" xmlns="http://www.w3.org/2000/svg" xmlns:xlink="http://www.w3.org/1999/xlink" xmlns:sketch="http://www.bohemiancoding.com/sketch/ns">
    <!-- Generator: Sketch 3.1.1 (8761) - http://www.bohemiancoding.com/sketch -->
    <title>icon_20845</title>
    <desc>Created with Sketch.</desc>
    <defs></defs>
    <g id="Page-1" stroke="none" stroke-width="1" fill="none" fill-rule="evenodd" sketch:type="MSPage">
        <g id="landinPage2" sketch:type="MSArtboardGroup" transform="translate(-1056.000000, -56.000000)">
            <g id="icon_20845" sketch:type="MSLayerGroup" transform="translate(1056.000000, 57.000000)">
                <g id="facebook_1_"></g>
                <path d="M4.44976166,0.559774329 C3.60283425,0.992995104 3.00973374,1.57220275 2.68453372,2.28270378 C2.38044406,2.95054631 2.2316663,3.8956691 2.2316663,5.17779404 L2.2316663,5.61385872 L0.0412154587,5.61385872 L0.0412154587,9.78443816 L2.2316663,9.78443816 L2.2316663,20.9178329 L7.49518196,20.9178329 L7.49518196,9.78491214 L10.4430925,9.78491214 L10.4430925,5.6143327 L7.49518196,5.6143327 L7.49518196,5.24415171 C7.49518196,4.44074994 7.67009634,4.23883304 7.69170933,4.21702981 C7.80480053,4.10232584 8.07018787,4.03928605 8.43660335,4.03928605 C8.95983862,4.03928605 9.5177552,4.10374779 10.094269,4.23409321 L10.762261,4.38434593 L11.5393232,0.607646646 L10.9763803,0.440330526 C8.69495391,-0.235569722 6.0616882,-0.264956689 4.44976166,0.559774329 L4.44976166,0.559774329 Z" id="Shape" fill="#FFFFFF" sketch:type="MSShapeGroup"></path>
            </g>
        </g>
    </g>
</svg>