<?xml version="1.0" encoding="UTF-8" standalone="no"?>
<svg width="21px" height="17px" viewBox="0 0 21 17" version="1.1" xmlns="http://www.w3.org/2000/svg" xmlns:xlink="http://www.w3.org/1999/xlink" xmlns:sketch="http://www.bohemiancoding.com/sketch/ns">
    <!-- Generator: Sketch 3.1.1 (8761) - http://www.bohemiancoding.com/sketch -->
    <title>Path 3</title>
    <desc>Created with Sketch.</desc>
    <defs></defs>
    <g id="Page-1" stroke="none" stroke-width="1" fill="none" fill-rule="evenodd" sketch:type="MSPage">
        <g id="landinPage2" sketch:type="MSArtboardGroup" transform="translate(-1106.000000, -62.000000)" fill="#FFFFFF">
            <path d="M1124.33591,66.5347704 C1124.33591,71.9028157 1120.12349,78.0922691 1112.42049,78.0922691 C1110.05603,78.0922691 1107.85434,77.4199735 1106,76.2673194 C1106.32608,76.3024047 1106.6612,76.3245909 1106.99898,76.3245909 C1108.9613,76.3245909 1110.7667,75.6744816 1112.2008,74.5842586 C1110.36615,74.5527851 1108.82087,73.3769128 1108.28733,71.7635066 C1108.5432,71.8109749 1108.80597,71.8372889 1109.07354,71.8372889 C1109.45653,71.8372889 1109.82676,71.7867248 1110.17731,71.694368 C1108.26127,71.3192653 1106.81706,69.6795451 1106.81706,67.7096107 L1106.81706,67.6590467 C1107.38198,67.962431 1108.02828,68.1450808 1108.71448,68.1657192 C1107.59103,67.437184 1106.8527,66.192689 1106.8527,64.7841189 C1106.8527,64.0401049 1107.05909,63.3430433 1107.41974,62.7429821 C1109.48366,65.2004984 1112.5705,66.8170004 1116.0515,66.9862352 C1115.97916,66.6900743 1115.94405,66.3784346 1115.94405,66.0600874 C1115.94405,63.8187582 1117.8186,62 1120.13041,62 C1121.33578,62 1122.42466,62.4932575 1123.18852,63.2811281 C1124.14122,63.1000262 1125.0386,62.7620726 1125.84768,62.2961609 C1125.53437,63.243979 1124.86998,64.0401049 1124.00664,64.5426497 C1124.85295,64.4456493 1125.65884,64.2273983 1126.411,63.9028596 C1125.85087,64.7216878 1125.1418,65.436808 1124.32261,66.0095233 C1124.33219,66.1834018 1124.33591,66.3588281 1124.33591,66.5347704 Z" id="Path-3" sketch:type="MSShapeGroup"></path>
        </g>
    </g>
</svg>