<?xml version="1.0" encoding="utf-8"?>
<!-- Generator: Adobe Illustrator 17.1.0, SVG Export Plug-In . SVG Version: 6.00 Build 0)  -->
<!DOCTYPE svg PUBLIC "-//W3C//DTD SVG 1.1//EN" "http://www.w3.org/Graphics/SVG/1.1/DTD/svg11.dtd">
<svg version="1.1" id="图层_1" xmlns="http://www.w3.org/2000/svg" xmlns:xlink="http://www.w3.org/1999/xlink" x="0px" y="0px"
	 viewBox="0 0 154.7 43.7" enable-background="new 0 0 154.7 43.7" xml:space="preserve">
<path fill-rule="evenodd" clip-rule="evenodd" fill="#FFFFFF" d="M122.9,29.8l4.8-12.3h5.3l-9,19.9h-2.9l-8.9-19.9h5.3L122.9,29.8z
	 M105.6,27.1c0-1.8-0.5-3.3-1.5-4.5c-1-1.2-2.3-1.8-3.9-1.8c-1.6,0-2.9,0.6-3.9,1.7c-1,1.1-1.5,2.6-1.5,4.5c0,1.9,0.5,3.4,1.5,4.5
	c1,1.2,2.3,1.7,3.9,1.7c1.6,0,2.9-0.6,3.9-1.7C105.1,30.6,105.6,29.1,105.6,27.1z M109.7,36.9H105v-1.8c-1.4,1.6-3.4,2.4-6.2,2.4
	c-2.7,0-4.9-1.1-6.5-3.2c-1.6-2.1-2.4-4.6-2.4-7.4c0-2.8,0.8-5.2,2.5-7.2c1.7-2,3.8-3,6.4-3c2.8,0,4.9,0.8,6.3,2.5v-1.8h4.7V36.9z"
	/>
<path fill-rule="evenodd" clip-rule="evenodd" fill="#FFFFFF" d="M148.5,25c0-1.3-0.4-2.5-1.3-3.6c-0.8-1-1.9-1.5-3.3-1.5
	c-1.3,0-2.4,0.5-3.3,1.6c-0.8,1.1-1.3,2.2-1.3,3.5H148.5z M139.3,27.6c0,1.9,0.4,3.4,1.2,4.6c0.8,1.2,2,1.8,3.4,1.8
	c2.3,0,3.7-1.1,4.3-3.4l4.5,0.7c-1.5,4-4.4,6.1-8.9,6.1c-3,0-5.3-0.9-7.1-2.8c-1.8-1.9-2.6-4.4-2.6-7.4c0-3.2,0.8-5.8,2.5-7.7
	c1.7-1.9,4-2.9,6.9-2.9c2.9,0,5.2,0.9,6.8,2.7c1.6,1.8,2.4,4.3,2.4,7.5v0.6H139.3z"/>
<polyline fill-rule="evenodd" clip-rule="evenodd" fill="#FFFFFF" points="63.9,30 69.7,9.9 72,9.9 78.1,30 84,10.2 88.7,10.2 
	79.7,37.4 76.2,37.4 70.6,19.1 65.1,37.4 61.6,37.4 53.1,10.2 57.9,10.2 63.9,30 "/>
<path fill-rule="evenodd" clip-rule="evenodd" fill="#FFFFFF" d="M39.3,27.6c-3,1.7-6.6,5.1-8.5,7.6c-6.4,8.1-14.1,5.6-16.2,4.3
	C10.7,37.3,8,32.9,6.7,29L2.1,15.5c-0.3-1,0.2-2,1.2-2.3c0.5-0.2,1-0.1,1.5,0.1c0.2,0.1,0.4,0.3,0.6,0.5c0.1,0.1,0.7,1,2.2,3.4
	c0.8,1.2,2.5,3.6,3.9,4.4c0.3,0.2,0.6,0.3,0.9,0.3c2.3,0.1,3.5-3.8,5.2-10.2l2.2-8.2c0.1-0.5,0.4-0.9,0.9-1.2c0.4-0.3,1-0.4,1.5-0.2
	c0.2,0,0.4,0.1,0.5,0.2c0.3,0.2,0.5,0.4,0.7,0.7c0.3,0.4,0.3,1,0.2,1.5L21.5,15c-0.4,1.9-0.3,2.6,0.2,2.9c0,0,0.1,0.1,0.2,0.1
	c0.7,0.3,1.1-0.3,1.8-1.3l6.5-11C30.8,4.8,32,4.4,32.9,5c0.9,0.5,1.2,1.7,0.7,2.7l-5.9,10.7c-0.6,1.1-1.1,2.3-0.4,2.9
	c0.1,0,0.1,0.1,0.2,0.1c0.9,0.5,2.1-0.8,2.6-1.3l6.7-7.5c0.3-0.4,0.8-0.6,1.3-0.7c0.4,0,0.8,0,1.1,0.2c0.1,0.1,0.2,0.1,0.3,0.2
	c0.4,0.3,0.6,0.8,0.7,1.3c0,0.5-0.1,1-0.5,1.4l-7.3,9.3c-0.5,0.6-0.6,1.3-0.2,1.7c0.1,0.1,0.2,0.2,0.3,0.3c0.3,0.2,0.7,0.2,1.2,0
	l6.2-2.7c0.4-0.2,0.8-0.2,1.3,0c0.1,0,0.2,0.1,0.2,0.1c0.3,0.2,0.5,0.4,0.7,0.8c0.2,0.4,0.2,0.8,0,1.3c-0.2,0.4-0.5,0.7-0.9,0.9
	C40.8,26.8,40.1,27.2,39.3,27.6z"/>
</svg>
