<?xml version="1.0" encoding="UTF-8" standalone="no"?>
<svg width="151px" height="39px" viewBox="0 0 151 39" version="1.1" xmlns="http://www.w3.org/2000/svg" xmlns:xlink="http://www.w3.org/1999/xlink" xmlns:sketch="http://www.bohemiancoding.com/sketch/ns">
    <!-- Generator: Sketch 3.1.1 (8761) - http://www.bohemiancoding.com/sketch -->
    <title>Shape 2 + Imported Layers</title>
    <desc>Created with Sketch.</desc>
    <defs></defs>
    <g id="Page-1" stroke="none" stroke-width="1" fill="none" fill-rule="evenodd" sketch:type="MSPage">
        <g id="landinPage2" sketch:type="MSArtboardGroup" transform="translate(-285.000000, -39.000000)" fill="#FFFFFF">
            <g id="Shape-2-+-Imported-Layers" sketch:type="MSLayerGroup" transform="translate(285.000000, 39.000000)">
                <path d="M37.2563468,25.658701 C34.2283763,27.3716741 30.6688675,30.7491732 28.7095515,33.2496474 C22.3372445,41.3819695 14.6332218,38.8113708 12.4963849,37.5776672 C8.59723551,35.3264916 5.91337131,30.9041161 4.62105141,27.0537783 L0.0694435147,13.5160729 C-0.244725458,12.5545946 0.281557692,11.5098272 1.24165408,11.1871211 C1.74619742,11.0177634 2.27827587,11.0805612 2.71652861,11.3335866 C2.93913932,11.4621109 3.13715707,11.6394901 3.29483934,11.860804 C3.37625877,11.9656541 3.95734463,12.8456978 5.5379179,15.2579796 C6.3006745,16.4206074 8.01034238,18.8542694 9.46447425,19.6938128 C9.77612924,19.8737469 10.0752418,19.9797383 10.3502547,19.9853125 C12.6330631,20.0359676 13.8315097,16.1666677 15.5313779,9.78645082 L17.7335181,1.53937132 C17.8564833,1.03402431 18.1659787,0.606146512 18.6088117,0.334458994 C19.0512575,0.0625479553 19.5708632,-0.0220323104 20.074223,0.0976604659 C20.2576444,0.14206861 20.430527,0.210095075 20.5900324,0.302185568 C20.8649082,0.460885204 21.0982322,0.68887249 21.2674192,0.968939005 C21.5344325,1.41126975 21.6147145,1.93026192 21.4854668,2.4554314 L19.4266522,13.0140218 C19.0686239,14.8724492 19.1195393,15.6157577 19.6747111,15.9362863 C19.7242661,15.9648969 19.7780775,15.9897117 19.8353069,16.0112888 C20.5100924,16.2721637 20.9812496,15.7484606 21.6180017,14.6867014 L28.1619324,3.72958363 C28.6985154,2.80019464 29.8844328,2.47706919 30.8046861,3.00837769 C31.726488,3.54058027 32.0393862,4.72956837 31.4989672,5.66560143 L25.6142968,16.3311191 C25.029126,17.4054624 24.5247617,18.5848231 25.2149964,19.1917719 C25.2685582,19.2393711 25.3240201,19.2792086 25.3805439,19.3118427 C26.2810526,19.8317516 27.4758568,18.5043785 27.9440805,17.9857562 L34.6331818,10.4938965 C34.9644595,10.0926646 35.430526,9.84689746 35.9447587,9.79934009 C36.3458101,9.76095531 36.7388439,9.84821761 37.079535,10.0449158 C37.1770966,10.1012429 37.2697581,10.1651632 37.3577785,10.2389103 C37.7522894,10.570381 37.9946364,11.0375534 38.0386948,11.5549128 C38.0822687,12.070429 37.9234029,12.5753719 37.5827741,12.9847537 L30.2936468,22.2901642 C29.828225,22.884401 29.7322231,23.5585199 30.049331,24.0052809 C30.1307859,24.1190102 30.2305537,24.2099618 30.3478598,24.2776886 C30.6544819,24.4547169 31.0755505,24.467493 31.5509672,24.2985155 L37.7418144,21.6080904 C38.1433946,21.4293129 38.5883885,21.419425 38.9948341,21.576442 C39.0723875,21.6066266 39.1471691,21.6425063 39.2180174,21.6834106 C39.5180579,21.856639 39.7539111,22.1204794 39.8945362,22.445546 C40.0689614,22.8479697 40.0769324,23.2955101 39.9165475,23.704735 C39.7564856,24.1151886 39.4468227,24.4387489 39.0451452,24.6159069 C38.7006753,24.8432902 38.0640186,25.2021353 37.2563468,25.658701 Z" id="Shape-2" sketch:type="MSShapeGroup"></path>
                <g id="Imported-Layers" transform="translate(51.000000, 8.000000)" sketch:type="MSShapeGroup">
                    <path d="M10.8365688,20.0123226 L16.5988713,-0.0964193548 L18.9742664,-0.0964193548 L25.0006772,20.0123226 L30.8948081,0.255612903 L35.6455982,0.255612903 L26.5841986,27.4926129 L23.1530474,27.4926129 L17.478781,9.14403226 L12.0241535,27.4926129 L8.54920993,27.4926129 L0.0595936795,0.255612903 L4.81038375,0.255612903 L10.8365688,20.0123226" id="Fill-1"></path>
                    <path d="M56.6492099,26.9646774 L51.9607223,26.9646774 L51.9607223,25.1873548 C50.578781,26.8002903 48.5221219,27.6064194 45.7916479,27.6064194 C43.0602709,27.6064194 40.8812641,26.5534839 39.2525959,24.4469355 C37.6239278,22.3410645 36.8097065,19.8725484 36.8097065,17.0416129 C36.8097065,14.2115806 37.6401806,11.800871 39.3018059,9.80925806 C40.9629797,7.81832258 43.0934537,6.82251613 45.6930023,6.82251613 C48.4566591,6.82251613 50.5455982,7.64558065 51.9607223,9.29103226 L51.9607223,7.46425806 L56.6492099,7.46425806 L56.6492099,26.9646774 L56.6492099,26.9646774 Z M52.5036117,17.1897419 C52.5036117,15.380129 51.9930023,13.8907097 50.9735892,12.7219355 C49.9534989,11.5540645 48.6455982,10.9694516 47.0501129,10.9694516 C45.4539503,10.9694516 44.1546275,11.537129 43.1514673,12.6727097 C42.1474041,13.8080645 41.6460497,15.3137419 41.6460497,17.1897419 C41.6460497,19.0657419 42.1557562,20.58 43.1760722,21.7316129 C44.1954853,22.884129 45.5117381,23.4594839 47.1241535,23.4594839 C48.7358916,23.4594839 50.0358916,22.9001613 51.0230248,21.7810645 C52.0099323,20.6624194 52.5036117,19.132129 52.5036117,17.1897419 L52.5036117,17.1897419 Z M69.8751693,19.8063871 L74.6623025,7.46425806 L79.9923251,7.46425806 L71.0103837,27.3596129 L68.1478555,27.3596129 L59.2151242,7.46425806 L64.4959368,7.46425806 L69.8751693,19.8063871 L69.8751693,19.8063871 Z" id="Fill-2"></path>
                    <path d="M86.2108352,17.6835806 C86.2108352,19.5593548 86.6218962,21.1068065 87.4446953,22.324129 C88.2668172,23.542129 89.4018059,24.1506774 90.8501129,24.1506774 C93.120316,24.1506774 94.5674944,23.0322581 95.1930023,20.7936129 L99.7334086,21.5342581 C98.2528217,25.5822903 95.2916479,27.6064194 90.8501129,27.6064194 C87.8889391,27.6064194 85.5277652,26.6607419 83.7679458,24.7678065 C82.0074492,22.8755484 81.1277652,20.4156129 81.1277652,17.3873226 C81.1277652,14.1953226 81.9742664,11.6358065 83.6693002,9.71058065 C85.3634312,7.78512903 87.6668172,6.82251613 90.5785553,6.82251613 C93.4902935,6.82251613 95.7604966,7.73590323 97.3891648,9.56245161 C99.017833,11.389 99.8320542,13.882129 99.8320542,17.0416129 L99.8320542,17.6835806 L86.2108352,17.6835806 L86.2108352,17.6835806 Z M95.3902935,15.0177097 C95.3902935,13.6685161 94.9708804,12.4837097 94.1318284,11.4630645 C93.2930023,10.4433226 92.2072235,9.93277419 90.8747178,9.93277419 C89.5422122,9.93277419 88.4564334,10.4679355 87.6173815,11.537129 C86.7785553,12.607 86.3589165,13.7671935 86.3589165,15.0177097 L95.3902935,15.0177097 L95.3902935,15.0177097 Z" id="Fill-3"></path>
                </g>
            </g>
        </g>
    </g>
</svg>